<svg width="173" height="60" viewBox="0 0 173 60" fill="none" xmlns="http://www.w3.org/2000/svg">
<path fill-rule="evenodd" clip-rule="evenodd" d="M13.0166 3.91406H159.728C162.989 3.91406 164.169 4.27928 165.361 4.95754C166.538 5.62483 167.5 6.65656 168.122 7.91839C168.755 9.19665 169.095 10.4619 169.095 13.9445V46.0574C169.095 49.5399 168.755 50.8052 168.122 52.0834C167.5 53.3453 166.538 54.377 165.361 55.0443C164.169 55.7225 162.989 56.0877 159.74 56.0877H13.0044C9.75632 56.0877 8.5763 55.7225 7.38411 55.0443C6.20724 54.377 5.24499 53.3453 4.62263 52.0834C3.99004 50.8052 3.64941 49.5399 3.64941 46.0574V13.9445C3.64941 10.4619 3.99004 9.19665 4.62263 7.91839C5.24499 6.65656 6.20724 5.62483 7.38411 4.95754C8.5763 4.27928 9.75632 3.91406 13.0044 3.91406H13.0166Z" fill="black"/>
<path d="M40.5709 30.0392C40.5953 27.6001 41.7874 25.3566 43.7217 24.0783C43.1157 23.1517 42.3162 22.3896 41.3869 21.8529C40.4576 21.3162 39.4242 21.0197 38.369 20.9871C36.1306 20.7262 33.9531 22.4218 32.8096 22.4218C31.6417 22.4218 29.8778 21.0131 27.98 21.0523C26.7522 21.0952 25.5557 21.4781 24.5068 22.1638C23.458 22.8495 22.5926 23.8147 21.9947 24.9653C19.4036 29.7783 21.3378 36.8348 23.8195 40.7217C25.0604 42.613 26.4958 44.7391 28.4058 44.6609C30.2549 44.5826 30.9605 43.3956 33.1867 43.3956C35.4129 43.3956 36.0577 44.6609 37.9919 44.6217C39.987 44.5826 41.24 42.7043 42.4444 40.787C43.3324 39.4304 44.0258 37.9305 44.4759 36.3522C43.3189 35.8272 42.3316 34.9486 41.6372 33.8259C40.9427 32.7033 40.5719 31.3863 40.5709 30.0392ZM36.9092 18.4305C37.997 17.0334 38.5338 15.2366 38.4055 13.4219C36.7389 13.6175 35.2061 14.4653 34.1112 15.8088C33.5723 16.4657 33.1595 17.23 32.8965 18.0582C32.6335 18.8863 32.5254 19.7619 32.5784 20.6349C33.409 20.6438 34.2305 20.4499 34.9808 20.068C35.7312 19.6861 36.3906 19.1262 36.9092 18.4305Z" fill="white"/>
<path d="M66.0564 38.6616H60.3023L58.9155 43.0441H56.4824L61.9324 26.8442H64.4749L69.9249 43.0441H67.4432L66.0564 38.6616ZM60.8984 36.6398H65.4603L63.2097 29.5312H63.1489L60.8984 36.6398ZM81.7008 37.1355C81.7008 40.8007 79.876 43.1615 77.1023 43.1615C76.4023 43.2015 75.7059 43.0295 75.0927 42.665C74.4796 42.3006 73.9745 41.7585 73.6353 41.1007H73.5866V46.9441H71.3239V31.2268H73.5136V33.1833H73.5501C73.9047 32.5265 74.4191 31.9853 75.0384 31.6177C75.6577 31.2502 76.3585 31.0699 77.0659 31.0964C79.8638 31.0964 81.7008 33.4703 81.7008 37.1355ZM79.3772 37.1355C79.3772 34.7485 78.2215 33.1703 76.4576 33.1703C74.7423 33.1703 73.5745 34.7746 73.5745 37.1355C73.5745 39.5094 74.7423 41.1137 76.4698 41.1137C78.2215 41.1137 79.3772 39.5485 79.3772 37.1355ZM93.8173 37.1355C93.8173 40.8007 91.9925 43.1615 89.231 43.1615C88.5309 43.2015 87.8345 43.0295 87.2214 42.665C86.6083 42.3006 86.1032 41.7585 85.7639 41.1007H85.7031V46.9441H83.4526V31.2268H85.6423V33.1833H85.6788C86.0324 32.5285 86.5449 31.9886 87.1618 31.6212C87.7787 31.2537 88.477 31.0723 89.1823 31.0964C91.9803 31.0964 93.8173 33.4703 93.8173 37.1355ZM91.5059 37.1355C91.5059 34.7485 90.3502 33.1703 88.5862 33.1703C86.8588 33.1703 85.7031 34.7746 85.7031 37.1355C85.7031 39.5094 86.8588 41.1137 88.5862 41.1137C90.3502 41.1137 91.5059 39.5485 91.5059 37.1355ZM101.834 38.5311C102.004 40.1355 103.452 41.192 105.447 41.192C107.357 41.192 108.732 40.1355 108.732 38.6876C108.732 37.4224 107.892 36.679 105.934 36.1572L103.987 35.6485C101.202 34.9311 99.9242 33.5485 99.9242 31.292C99.9242 28.4877 102.187 26.5703 105.411 26.5703C108.61 26.5703 110.8 28.4877 110.873 31.292H108.586C108.452 29.6746 107.199 28.6833 105.386 28.6833C103.562 28.6833 102.321 29.6746 102.321 31.1225C102.321 32.2572 103.111 32.9485 105.058 33.4572L106.724 33.8877C109.827 34.6703 111.104 36.0137 111.104 38.3746C111.104 41.4137 108.853 43.305 105.277 43.305C101.931 43.305 99.6687 41.4529 99.5227 38.5311H101.834ZM115.994 28.4355V31.2268H118.087V33.1442H115.994V39.6659C115.994 40.6702 116.408 41.1398 117.332 41.1398C117.576 41.1398 117.819 41.1137 118.062 41.0876V42.992C117.661 43.0833 117.235 43.1224 116.822 43.1094C114.583 43.1094 113.719 42.1963 113.719 39.9137V33.1442H112.114V31.2268H113.719V28.4355H115.994ZM119.291 37.1355C119.291 33.4181 121.335 31.0833 124.522 31.0833C127.709 31.0833 129.753 33.4311 129.753 37.1355C129.753 40.8659 127.722 43.1876 124.522 43.1876C121.323 43.1876 119.291 40.8659 119.291 37.1355ZM127.442 37.1355C127.442 34.592 126.347 33.092 124.522 33.092C122.697 33.092 121.602 34.592 121.602 37.1355C121.602 39.692 122.697 41.1789 124.522 41.1789C126.347 41.1789 127.442 39.692 127.442 37.1355ZM131.614 31.2268H133.768V33.2355H133.816C134.12 31.9442 135.227 31.0572 136.468 31.1094C136.724 31.1094 136.991 31.1355 137.247 31.2007V33.4703C136.917 33.3585 136.571 33.3056 136.225 33.3138C135.895 33.298 135.566 33.3594 135.261 33.4936C134.955 33.6278 134.681 33.8317 134.456 34.0911C134.232 34.3505 134.063 34.6591 133.961 34.9956C133.858 35.3321 133.826 35.6884 133.865 36.0398V43.0441H131.614V31.2268ZM147.66 39.5746C147.356 41.7137 145.41 43.1876 142.916 43.1876C139.716 43.1876 137.733 40.8789 137.733 37.1877C137.733 33.4833 139.729 31.0833 142.831 31.0833C145.872 31.0833 147.794 33.3268 147.794 36.9137V37.7355H140.008V37.892C139.974 38.3266 140.025 38.7641 140.16 39.1756C140.295 39.5871 140.51 39.9631 140.791 40.2788C141.071 40.5946 141.411 40.8427 141.788 41.0069C142.165 41.1711 142.57 41.2475 142.977 41.2311C144.071 41.3355 145.106 40.6702 145.519 39.5746H147.66ZM140.02 36.0529H145.531C145.551 35.6621 145.496 35.271 145.369 34.9042C145.242 34.5374 145.045 34.2027 144.791 33.9211C144.538 33.6394 144.233 33.417 143.896 33.2676C143.558 33.1182 143.196 33.0451 142.831 33.0529C142.089 33.0529 141.377 33.369 140.852 33.9316C140.327 34.4942 140.033 35.2572 140.033 36.0529H140.02Z" fill="white"/>
<path d="M60.6189 14.6478C61.0927 14.6128 61.5678 14.6909 62.0101 14.8765C62.4524 15.062 62.8507 15.3505 63.1765 15.721C63.5023 16.0915 63.7474 16.5349 63.8941 17.0192C64.0409 17.5035 64.0856 18.0166 64.0251 18.5217C64.0251 20.9999 62.7721 22.4347 60.6189 22.4347H57.9912V14.6478H60.6189ZM59.1226 21.326H60.4851C60.823 21.347 61.1611 21.2872 61.4749 21.1511C61.7887 21.0149 62.0704 20.8058 62.2997 20.5387C62.529 20.2717 62.7001 19.9534 62.8007 19.6069C62.9014 19.2603 62.929 18.8941 62.8816 18.5347C62.929 18.1753 62.9014 17.8092 62.8007 17.4626C62.7001 17.116 62.529 16.7978 62.2997 16.5307C62.0704 16.2637 61.7887 16.0545 61.4749 15.9184C61.1611 15.7822 60.823 15.7225 60.4851 15.7434H59.1226V21.326ZM65.3025 19.4869C65.2781 19.1069 65.3269 18.7256 65.4458 18.3667C65.5647 18.0078 65.7512 17.679 65.9936 17.4006C66.2361 17.1222 66.5293 16.9002 66.8551 16.7485C67.1809 16.5967 67.5323 16.5184 67.8876 16.5184C68.2428 16.5184 68.5942 16.5967 68.92 16.7485C69.2458 16.9002 69.5391 17.1222 69.7815 17.4006C70.0239 17.679 70.2104 18.0078 70.3293 18.3667C70.4482 18.7256 70.497 19.1069 70.4727 19.4869C70.497 19.8669 70.4482 20.2482 70.3293 20.6071C70.2104 20.966 70.0239 21.2948 69.7815 21.5732C69.5391 21.8516 69.2458 22.0736 68.92 22.2253C68.5942 22.3771 68.2428 22.4554 67.8876 22.4554C67.5323 22.4554 67.1809 22.3771 66.8551 22.2253C66.5293 22.0736 66.2361 21.8516 65.9936 21.5732C65.7512 21.2948 65.5647 20.966 65.4458 20.6071C65.3269 20.2482 65.2781 19.8669 65.3025 19.4869ZM69.3535 19.4869C69.3535 18.2217 68.8304 17.4782 67.8936 17.4782C66.9448 17.4782 66.4217 18.2217 66.4217 19.4869C66.4217 20.7782 66.9448 21.5086 67.8815 21.5086C68.8304 21.5086 69.3535 20.7652 69.3535 19.4869ZM77.3338 22.4347H76.2146L75.0832 18.1043H74.9981L73.8667 22.4347H72.7719L71.2512 16.5652H72.3461L73.3193 21.0391H73.4045L74.5358 16.5521H75.5698L76.7012 21.0391H76.7864L77.7596 16.5521H78.8423L77.3338 22.4347ZM80.1074 16.5652H81.1537V17.4913H81.2388C81.5186 16.8 82.1755 16.3826 82.8689 16.4478C83.1353 16.425 83.403 16.467 83.6521 16.5707C83.9013 16.6743 84.1254 16.8368 84.3078 17.0462C84.4902 17.2555 84.6262 17.5063 84.7057 17.7799C84.7851 18.0534 84.806 18.3426 84.7667 18.626V22.4347H83.6718V18.913C83.6718 17.9739 83.3069 17.5043 82.504 17.5043C82.3225 17.4937 82.1411 17.5255 81.9722 17.5976C81.8034 17.6697 81.6512 17.7804 81.5262 17.9218C81.4012 18.0633 81.3064 18.2322 81.2483 18.4169C81.1903 18.6015 81.1705 18.7975 81.1901 18.9913V22.4347H80.1074V16.5652ZM86.4941 14.2695H87.5647V22.4347H86.482L86.4941 14.2695ZM89.0732 19.4869C89.0488 19.1069 89.0976 18.7256 89.2165 18.3667C89.3354 18.0078 89.5219 17.679 89.7643 17.4006C90.0067 17.1222 90.3 16.9002 90.6258 16.7485C90.9516 16.5967 91.303 16.5184 91.6583 16.5184C92.0135 16.5184 92.3649 16.5967 92.6907 16.7485C93.0165 16.9002 93.3098 17.1222 93.5522 17.4006C93.7946 17.679 93.9811 18.0078 94.1 18.3667C94.2189 18.7256 94.2677 19.1069 94.2434 19.4869C94.2677 19.8669 94.2189 20.2482 94.1 20.6071C93.9811 20.966 93.7946 21.2948 93.5522 21.5732C93.3098 21.8516 93.0165 22.0736 92.6907 22.2253C92.3649 22.3771 92.0135 22.4554 91.6583 22.4554C91.303 22.4554 90.9516 22.3771 90.6258 22.2253C90.3 22.0736 90.0067 21.8516 89.7643 21.5732C89.5219 21.2948 89.3354 20.966 89.2165 20.6071C89.0976 20.2482 89.0488 19.8669 89.0732 19.4869ZM93.1242 19.4869C93.1242 18.2217 92.5889 17.4782 91.6643 17.4782C90.7155 17.4782 90.1924 18.2217 90.1924 19.4869C90.1924 20.7782 90.7155 21.5086 91.6522 21.5086C92.5889 21.5086 93.1242 20.7652 93.1242 19.4869ZM95.3747 20.7652C95.3747 19.7217 96.1046 19.1086 97.4185 19.0173L98.9026 18.926V18.4173C98.9026 17.8043 98.5133 17.4521 97.7712 17.4521C97.163 17.4521 96.7494 17.6869 96.6399 18.1043H95.5815C95.7032 17.0869 96.5791 16.4478 97.8199 16.4478C99.1946 16.4478 99.9731 17.1782 99.9731 18.4173V22.4347H98.9269V21.5999H98.8418C98.489 22.213 97.8686 22.5651 97.1995 22.526C96.9694 22.5516 96.7368 22.5251 96.5168 22.4482C96.2968 22.3714 96.0943 22.246 95.9224 22.0801C95.7504 21.9141 95.6128 21.7114 95.5185 21.4849C95.4242 21.2584 95.3752 21.0132 95.3747 20.7652ZM98.9026 20.2695V19.7739L97.5644 19.8652C96.8102 19.9173 96.4696 20.2043 96.4696 20.713C96.4696 21.2347 96.8953 21.5478 97.4793 21.5478C97.6516 21.5675 97.8259 21.5498 97.9917 21.4957C98.1575 21.4416 98.3114 21.3522 98.4442 21.2329C98.5771 21.1136 98.6862 20.9668 98.7649 20.8012C98.8437 20.6357 98.8905 20.4549 98.9026 20.2695ZM101.396 19.4869C101.396 17.6347 102.285 16.4608 103.671 16.4608C104.365 16.4217 105.022 16.826 105.35 17.4913H105.423V14.2695H106.518V22.4347H105.472V21.5086H105.387C105.034 22.1608 104.377 22.5521 103.671 22.526C102.272 22.526 101.396 21.3521 101.396 19.4869ZM102.516 19.4869C102.516 20.7391 103.063 21.4825 103.975 21.4825C104.888 21.4825 105.447 20.726 105.447 19.4999C105.447 18.2739 104.876 17.5043 103.975 17.5043C103.063 17.5043 102.516 18.2608 102.516 19.4869ZM110.983 19.4869C110.958 19.1069 111.007 18.7256 111.126 18.3667C111.245 18.0078 111.431 17.679 111.674 17.4006C111.916 17.1222 112.209 16.9002 112.535 16.7485C112.861 16.5967 113.212 16.5184 113.568 16.5184C113.923 16.5184 114.274 16.5967 114.6 16.7485C114.926 16.9002 115.219 17.1222 115.462 17.4006C115.704 17.679 115.891 18.0078 116.009 18.3667C116.128 18.7256 116.177 19.1069 116.153 19.4869C116.177 19.8669 116.128 20.2482 116.009 20.6071C115.891 20.966 115.704 21.2948 115.462 21.5732C115.219 21.8516 114.926 22.0736 114.6 22.2253C114.274 22.3771 113.923 22.4554 113.568 22.4554C113.212 22.4554 112.861 22.3771 112.535 22.2253C112.209 22.0736 111.916 21.8516 111.674 21.5732C111.431 21.2948 111.245 20.966 111.126 20.6071C111.007 20.2482 110.958 19.8669 110.983 19.4869ZM115.034 19.4869C115.034 18.2217 114.498 17.4782 113.574 17.4782C112.625 17.4782 112.102 18.2217 112.102 19.4869C112.102 20.7782 112.625 21.5086 113.562 21.5086C114.498 21.5086 115.034 20.7652 115.034 19.4869ZM117.6 16.5652H118.634V17.4913H118.72C118.999 16.8 119.656 16.3826 120.362 16.4478C120.627 16.4271 120.894 16.4707 121.141 16.5752C121.389 16.6797 121.611 16.8425 121.792 17.0516C121.973 17.2607 122.108 17.5108 122.187 17.7833C122.266 18.0558 122.286 18.3438 122.248 18.626V22.4347H121.177V18.913C121.177 17.9739 120.788 17.5043 119.985 17.5043C119.804 17.4956 119.624 17.5289 119.457 17.6019C119.29 17.6749 119.139 17.7858 119.015 17.927C118.892 18.0682 118.798 18.2365 118.741 18.4202C118.683 18.6039 118.664 18.7987 118.683 18.9913V22.4347H117.588V16.5652H117.6ZM128.367 15.0913V16.5913H129.547V17.5565H128.367V20.5825C128.367 21.1956 128.598 21.4695 129.133 21.4695L129.547 21.4434V22.4086C129.352 22.4478 129.157 22.4608 128.963 22.4608C127.746 22.4608 127.284 22.0043 127.284 20.8825V17.5565H126.408V16.5913H127.284V15.0913H128.367ZM131.019 14.2695H132.101V17.5043H132.186C132.478 16.813 133.147 16.3826 133.853 16.4608C134.117 16.445 134.382 16.4918 134.627 16.598C134.872 16.7041 135.093 16.867 135.273 17.075C135.453 17.283 135.588 17.531 135.669 17.8013C135.749 18.0717 135.773 18.3577 135.739 18.6391V22.4217H134.656V18.926C134.656 17.9869 134.242 17.5173 133.488 17.5173C133.302 17.4993 133.114 17.5254 132.938 17.5938C132.762 17.6622 132.603 17.7711 132.47 17.913C132.338 18.0548 132.236 18.2261 132.173 18.4146C132.109 18.6032 132.084 18.8045 132.101 19.0043V22.4347H131.019V14.2695ZM142.04 20.8434C141.892 21.379 141.574 21.842 141.14 22.1518C140.707 22.4616 140.186 22.5987 139.668 22.5391C139.308 22.5481 138.95 22.4734 138.62 22.32C138.289 22.1667 137.993 21.9384 137.753 21.6508C137.512 21.3633 137.333 21.0233 137.227 20.6542C137.12 20.2852 137.09 19.8958 137.138 19.513C137.091 19.1283 137.121 18.7373 137.227 18.3663C137.333 17.9954 137.512 17.6531 137.752 17.3626C137.992 17.0721 138.287 16.8401 138.617 16.6823C138.948 16.5245 139.306 16.4445 139.668 16.4478C141.189 16.4478 142.101 17.5565 142.101 19.4086V19.7999H138.245V19.8782C138.228 20.0938 138.253 20.3109 138.319 20.5154C138.385 20.72 138.49 20.9075 138.627 21.0659C138.765 21.2244 138.932 21.3503 139.117 21.4355C139.303 21.5207 139.503 21.5634 139.704 21.5608C140.228 21.626 140.739 21.3391 141.006 20.8434H142.04ZM138.245 18.9521H141.006C141.02 18.7557 140.995 18.5585 140.934 18.3728C140.872 18.1872 140.776 18.0173 140.65 17.8738C140.524 17.7303 140.372 17.6165 140.203 17.5394C140.034 17.4623 139.852 17.4237 139.668 17.426C139.48 17.4225 139.294 17.4596 139.119 17.535C138.945 17.6104 138.787 17.7227 138.654 17.8651C138.521 18.0076 138.417 18.1772 138.346 18.364C138.276 18.5507 138.241 18.7507 138.245 18.9521Z" fill="white"/>
</svg>
