<svg width="70" height="70" viewBox="0 0 70 70" fill="none" xmlns="http://www.w3.org/2000/svg">
<path d="M34.9999 5.83337C18.8999 5.83337 5.83325 18.9 5.83325 35C5.83325 51.1 18.8999 64.1667 34.9999 64.1667C51.0999 64.1667 64.1666 51.1 64.1666 35C64.1666 18.9 51.0999 5.83337 34.9999 5.83337ZM27.0958 47.5125L16.6249 37.0417C16.3549 36.7717 16.1407 36.4511 15.9945 36.0983C15.8484 35.7455 15.7732 35.3673 15.7732 34.9855C15.7732 34.6036 15.8484 34.2254 15.9945 33.8726C16.1407 33.5198 16.3549 33.1992 16.6249 32.9292C16.895 32.6592 17.2155 32.445 17.5683 32.2988C17.9211 32.1527 18.2993 32.0775 18.6812 32.0775C19.0631 32.0775 19.4412 32.1527 19.794 32.2988C20.1468 32.445 20.4674 32.6592 20.7374 32.9292L29.1666 41.3292L49.2333 21.2625C49.7786 20.7172 50.5183 20.4108 51.2895 20.4108C52.0608 20.4108 52.8004 20.7172 53.3458 21.2625C53.8911 21.8079 54.1975 22.5475 54.1975 23.3188C54.1975 24.09 53.8911 24.8297 53.3458 25.375L31.2083 47.5125C30.9384 47.7829 30.6179 47.9974 30.2651 48.1438C29.9122 48.2902 29.534 48.3655 29.152 48.3655C28.77 48.3655 28.3918 48.2902 28.0389 48.1438C27.6861 47.9974 27.3656 47.7829 27.0958 47.5125Z" fill="#219653"/>
</svg>
