<svg width="23" height="20" viewBox="0 0 23 22" fill="none" xmlns="http://www.w3.org/2000/svg">
<path d="M3.4955 2.17896H18.9986C19.5324 2.17896 19.9573 2.60385 19.9573 3.13768V18.6516C19.9573 19.1746 19.5324 19.6104 18.9986 19.6104H14.5536V12.8557H16.8196L17.1574 10.2301H14.5536V8.55231C14.5536 7.78969 14.7714 7.26675 15.8609 7.26675H17.2554V4.91351C17.0157 4.88082 16.1877 4.81546 15.229 4.81546C13.2135 4.81546 11.8408 6.03565 11.8408 8.29084V10.2301H9.56381V12.8557H11.8408V19.6104H3.4955C3.24022 19.6104 2.99523 19.5097 2.8137 19.3302C2.63217 19.1507 2.52875 18.9069 2.52588 18.6516V3.13768C2.52588 2.60385 2.96166 2.17896 3.4955 2.17896Z" fill="white"/>
</svg>
