<svg width="20" height="20" viewBox="0 0 22 22" fill="none" xmlns="http://www.w3.org/2000/svg">
<path d="M18.7252 2.59399H3.06422C2.68758 2.59399 2.3833 2.89828 2.3833 3.27491V18.9359C2.3833 19.3126 2.68758 19.6169 3.06422 19.6169H18.7252C19.1019 19.6169 19.4062 19.3126 19.4062 18.9359V3.27491C19.4062 2.89828 19.1019 2.59399 18.7252 2.59399ZM7.43271 17.0996H4.90694V8.97544H7.43271V17.0996ZM6.17089 7.8647C5.88134 7.8647 5.5983 7.77884 5.35755 7.61797C5.1168 7.45711 4.92916 7.22847 4.81836 6.96097C4.70756 6.69346 4.67856 6.39911 4.73505 6.11513C4.79154 5.83114 4.93097 5.57029 5.13571 5.36555C5.34045 5.16081 5.6013 5.02138 5.88528 4.9649C6.16926 4.90841 6.46362 4.9374 6.73112 5.0482C6.99863 5.15901 7.22727 5.34665 7.38813 5.5874C7.54899 5.82814 7.63485 6.11119 7.63485 6.40073C7.63273 7.20932 6.97735 7.8647 6.17089 7.8647ZM16.8889 17.0996H14.3653V13.1482C14.3653 12.2055 14.3482 10.9948 13.0524 10.9948C11.7395 10.9948 11.5373 12.0204 11.5373 13.0801V17.0996H9.01583V8.97544H11.4373V10.0862H11.4714C11.8076 9.44782 12.6311 8.77329 13.861 8.77329C16.4187 8.77329 16.8889 10.4564 16.8889 12.6439V17.0996Z" fill="#FAFAFA"/>
</svg>
