<svg width="15" height="14" viewBox="0 0 15 14" fill="none" xmlns="http://www.w3.org/2000/svg">
<path opacity="0.8" d="M14.5309 4.87773L10.1824 4.24575L8.23853 0.304864C8.18544 0.196965 8.09809 0.109618 7.9902 0.056525C7.71959 -0.0770645 7.39076 0.0342601 7.25545 0.304864L5.31155 4.24575L0.963047 4.87773C0.843159 4.89486 0.733547 4.95138 0.649626 5.03701C0.548169 5.14129 0.492262 5.28159 0.494189 5.42706C0.496116 5.57254 0.555719 5.71131 0.659902 5.81286L3.8061 8.88028L3.0628 13.2117C3.04537 13.3124 3.05652 13.416 3.09498 13.5108C3.13345 13.6055 3.19769 13.6876 3.28043 13.7477C3.36316 13.8078 3.46108 13.8435 3.56307 13.8508C3.66507 13.858 3.76706 13.8366 3.85749 13.7888L7.74699 11.7439L11.6365 13.7888C11.7427 13.8454 11.866 13.8642 11.9842 13.8436C12.2822 13.7923 12.4826 13.5097 12.4312 13.2117L11.6879 8.88028L14.8341 5.81286C14.9197 5.72894 14.9762 5.61933 14.9934 5.49944C15.0396 5.19972 14.8307 4.92226 14.5309 4.87773ZM10.364 8.44868L10.9823 12.0505L7.74699 10.3515L4.51173 12.0522L5.13001 8.4504L2.51303 5.8985L6.13022 5.3727L7.74699 2.09633L9.36377 5.3727L12.981 5.8985L10.364 8.44868Z" fill="#5F6368"/>
</svg>
