<svg width="24" height="20" viewBox="0 0 24 19" fill="none" xmlns="http://www.w3.org/2000/svg">
<g clip-path="url(#clip0)">
<path d="M23.1868 2.63197C22.3684 2.99486 21.489 3.24012 20.566 3.35046C21.5082 2.78574 22.2317 1.8915 22.5723 0.826012C21.6767 1.35752 20.6967 1.73201 19.6748 1.93329C18.8424 1.04651 17.6566 0.49231 16.3442 0.49231C13.8241 0.49231 11.781 2.53536 11.781 5.0552C11.781 5.41288 11.8214 5.76109 11.8992 6.09514C8.10689 5.90479 4.74467 4.08823 2.49407 1.32756C2.10138 2.00149 1.87636 2.78539 1.87636 3.62152C1.87636 5.20463 2.68199 6.60121 3.90629 7.41952C3.18168 7.39683 2.473 7.20112 1.83944 6.84873C1.83918 6.86784 1.83918 6.88695 1.83918 6.90615C1.83918 9.11696 3.41204 10.9612 5.49939 11.3804C4.82746 11.5632 4.12264 11.5899 3.43879 11.4586C4.01941 13.2714 5.7046 14.5906 7.70125 14.6275C6.1396 15.8513 4.17205 16.5808 2.03431 16.5808C1.66594 16.5808 1.30279 16.5592 0.945801 16.5171C2.96513 17.8117 5.3636 18.5671 7.94043 18.5671C16.3336 18.5671 20.9231 11.6141 20.9231 5.58438C20.9231 5.38647 20.9188 5.18968 20.9099 4.99403C21.8032 4.34825 22.5743 3.54838 23.1868 2.63197Z" fill="white"/>
</g>
<defs>
<clipPath id="clip0">
<rect width="22.241" height="18.1577" fill="white" transform="translate(0.945801 0.420898)"/>
</clipPath>
</defs>
</svg>
